# xmcd
#
# Track frame offsets: 
#        150
#        10532
#        24070
#        37094
#        50311
#        61722
#        71288
#        84704
#        99498
#        111583
#        123257
#        141598
#        152643
#        166180
#        180914
#
# Disc length: 2629 seconds
#
# Revision: 5
# Processed by: cddbd v1.5.2PL0 Copyright (c) Steve Scherf et al.
# Submitted via: ExactAudioCopy v0.99pb4
#
DISCID=b40a430f
DTITLE=Various Artist - Superstars Of Country: Hello Darlin [CD1)
DYEAR=2005
DGENRE=Country
TTITLE0=Barbara Mandrell - Sleeping Single In A Double Bed
TTITLE1=Loretta Lynn - Coal Miner's Daughter
TTITLE2=Terri Gibbs - Somebody's Knockin
TTITLE3=Kenny Rogers - Ruby, Don't Take Your Love To Town
TTITLE4=Donna Fargo - The Happiest Girl In The Whole U.S.A
TTITLE5=Tom T Hall - I Love
TTITLE6=Faron Young - It's Four In The Morning
TTITLE7=Lee Greenwood - God Bless The U.S.A
TTITLE8=Marie Osmond - Paper Roses
TTITLE9=Freddy Fender - Before The Next Teardrop Falls
TTITLE10=Don Williams - Lord, I Hope This Day Is Good
TTITLE11=The Statler Brothers - Bed Of Rose's
TTITLE12=Conway Twitty - You've Never Been This Far Before
TTITLE13=Jeanne Pruett - Satin Sheets
TTITLE14=Cal Smith - Country Bumpkin
EXTD=
EXTT0=
EXTT1=
EXTT2=
EXTT3=
EXTT4=
EXTT5=
EXTT6=
EXTT7=
EXTT8=
EXTT9=
EXTT10=
EXTT11=
EXTT12=
EXTT13=
EXTT14=
PLAYORDER=
